<svg id="Layer_1" data-name="Layer 1" xmlns="http://www.w3.org/2000/svg" xmlns:xlink="http://www.w3.org/1999/xlink" viewBox="0 0 280.91 175.09"><defs><style>.cls-1{fill:none;}.cls-2{fill:#0c1330;}.cls-3{clip-path:url(#clip-path);}.cls-4{fill:url(#linear-gradient);}.cls-5{clip-path:url(#clip-path-2);}.cls-6{fill:url(#linear-gradient-2);}.cls-7{clip-path:url(#clip-path-3);}.cls-8{clip-path:url(#clip-path-4);}.cls-9{fill:url(#linear-gradient-4);}</style><clipPath id="clip-path"><path class="cls-1" d="M123.72,75.39C161.16,89.05,174,61.2,174,61.2a48,48,0,0,1-30.55,15.65c16.06-2.5,23.46-17.42,23.46-17.42-20.75,21.28-43.17,16-43.17,16"/></clipPath><linearGradient id="linear-gradient" y1="175.12" x2="1" y2="175.12" gradientTransform="matrix(-170.6, 0, 0, 170.6, 227.62, -29800.46)" gradientUnits="userSpaceOnUse"><stop offset="0" stop-color="#0c1330"/><stop offset="0.54" stop-color="#5a35b7"/><stop offset="1" stop-color="#00d1d1"/></linearGradient><clipPath id="clip-path-2"><polygon class="cls-1" points="39.04 38.39 39.04 51.21 62.44 51.21 62.44 111.28 77.49 111.28 77.49 51.21 101 51.21 101 38.39 39.04 38.39"/></clipPath><linearGradient id="linear-gradient-2" y1="175.09" y2="175.09" gradientTransform="matrix(-170.6, 0, 0, 170.6, 227.62, -29794.93)" xlink:href="#linear-gradient"/><clipPath id="clip-path-3"><polygon class="cls-1" points="222.31 38.39 204.13 63.2 186.05 38.39 169.34 38.39 194.52 74.47 168.61 111.28 185.63 111.28 204.13 85.84 222.62 111.28 239.65 111.28 213.84 74.47 238.92 38.39 222.31 38.39"/></clipPath><clipPath id="clip-path-4"><polygon class="cls-1" points="109.14 38.39 109.14 111.28 165.67 111.28 165.67 98.46 123.67 98.46 123.67 82.12 115.81 82.12 115.81 69.72 123.67 69.72 123.67 51.21 163.47 51.21 163.47 38.39 109.14 38.39"/></clipPath><linearGradient id="linear-gradient-4" y1="175.09" y2="175.09" gradientTransform="matrix(-170.6, 0, 0, 170.6, 227.62, -29794.93)" xlink:href="#linear-gradient"/></defs><title>TEX_logo</title><path class="cls-2" d="M53.85,125H50.07v9.64H47.66V125H43.9v-2h10Z"/><path class="cls-2" d="M64.68,132.54v2.06H55.6V122.91h8.72v2H57.94v3h5.34v2H57.94v2.62Z"/><path class="cls-2" d="M75.32,131l1.86,1.56a6.35,6.35,0,0,1-4.88,2.22,6,6,0,1,1,0-12A6.37,6.37,0,0,1,77.18,125l-1.86,1.56a3.7,3.7,0,0,0-3-1.54,3.73,3.73,0,1,0,3,5.92Z"/><path class="cls-2" d="M89.61,122.91V134.6H88.43l-7.06-7.37v7.37H79V122.91h1.18l7,7.36v-7.36Z"/><path class="cls-2" d="M104.14,128.76a6.29,6.29,0,1,1-6.29-6A6.12,6.12,0,0,1,104.14,128.76Zm-2.45,0a3.83,3.83,0,1,0-3.84,3.75A3.8,3.8,0,0,0,101.69,128.76Z"/><path class="cls-2" d="M114.62,132.61v2h-8.49V122.91h2.4v9.7Z"/><path class="cls-2" d="M127.76,128.76a6.29,6.29,0,1,1-6.28-6A6.12,6.12,0,0,1,127.76,128.76Zm-2.44,0a3.84,3.84,0,1,0-3.84,3.75A3.81,3.81,0,0,0,125.32,128.76Z"/><path class="cls-2" d="M140.54,128.74V133a8.23,8.23,0,0,1-5.15,1.71,6,6,0,1,1,0-11.94,7,7,0,0,1,4.73,1.67l-1.51,1.66a4.88,4.88,0,0,0-3.22-1.11,3.81,3.81,0,1,0,0,7.62,4.92,4.92,0,0,0,2.75-.8v-1.1h-3v-2Z"/><path class="cls-2" d="M145.11,134.6H142.7V122.91h2.41Zm-.43-12.66h-1.44l2-2.93,2.53.21Z"/><path class="cls-2" d="M155.44,132.23h-5.28l-1.06,2.37h-2.53l5.64-11.69h1.19l5.65,11.69h-2.53Zm-4.42-2h3.57l-1.8-3.86Z"/><path class="cls-2" d="M174.94,132.54v2.06h-9.07V122.91h8.72v2H168.2v3h5.35v2H168.2v2.62Z"/><path class="cls-2" d="M184.63,122.91h2.67l-4,5.78,4.15,5.91h-2.74l-3-4.08-3,4.08H176l4.16-5.91-4-5.78h2.68l2.9,4Z"/><path class="cls-2" d="M193.82,122.91c3.45,0,4.63,2,4.63,4.21,0,3.2-2.1,4.48-5.1,4.48h-2v3H189V122.91Zm-.71,6.71c1.92,0,2.82-.94,2.82-2.32a2.2,2.2,0,0,0-2.5-2.34h-2.08v4.66Z"/><path class="cls-2" d="M205.18,131.58a3.24,3.24,0,0,1-.45,0h-2.19v3h-2.4V122.91h5.21c3.46,0,4.63,2,4.63,4.21a4,4,0,0,1-2.4,4l2.75,3.48h-2.86Zm-2.64-1.94h2.11c1.91,0,2.82-1,2.82-2.34A2.2,2.2,0,0,0,205,125h-2.43Z"/><path class="cls-2" d="M221,132.54v2.06h-9.08V122.91h8.72v2h-6.39v3h5.35v2h-5.35v2.62Z"/><path class="cls-2" d="M231.86,131.17c0,2.25-1.83,3.58-4.58,3.58a9.2,9.2,0,0,1-4.91-1.11l.87-1.84a8.53,8.53,0,0,0,4.12.89c1.3,0,2.07-.46,2.07-1.33s-.79-1.14-2.52-1.54c-2.43-.55-4.39-1.23-4.39-3.53,0-2.06,1.66-3.52,4.36-3.52a11.58,11.58,0,0,1,4.53,1l-1,1.89a10.53,10.53,0,0,0-3.6-.78c-1.21,0-1.88.53-1.88,1.26s.84,1.18,2.62,1.58C230.11,128.23,231.86,129,231.86,131.17Z"/><path class="cls-2" d="M242.54,131.17c0,2.25-1.83,3.58-4.58,3.58a9.18,9.18,0,0,1-4.91-1.11l.87-1.84a8.53,8.53,0,0,0,4.12.89c1.29,0,2.07-.46,2.07-1.33s-.79-1.14-2.52-1.54c-2.43-.55-4.39-1.23-4.39-3.53,0-2.06,1.66-3.52,4.36-3.52a11.58,11.58,0,0,1,4.53,1l-1,1.89a10.53,10.53,0,0,0-3.6-.78c-1.21,0-1.88.53-1.88,1.26s.84,1.18,2.62,1.58C240.79,128.23,242.54,129,242.54,131.17Z"/><g class="cls-3"><rect class="cls-4" x="123.72" y="59.43" width="50.26" height="29.61"/></g><g class="cls-5"><rect class="cls-6" x="39.04" y="38.39" width="61.96" height="72.89"/></g><g class="cls-7"><rect class="cls-6" x="168.61" y="38.39" width="71.04" height="72.89"/></g><g class="cls-8"><rect class="cls-9" x="109.14" y="38.39" width="56.52" height="72.89"/></g></svg>